<?xml version="1.0"?>
<svg xmlns="http://www.w3.org/2000/svg" xmlns:xlink="http://www.w3.org/1999/xlink" xmlns:svgjs="http://svgjs.com/svgjs" version="1.1" width="512" height="512" x="0" y="0" viewBox="0 0 426.667 426.667" style="enable-background:new 0 0 512 512" xml:space="preserve" class=""><g>
<path xmlns="http://www.w3.org/2000/svg" style="" d="M379.567,182.386h-35.276c-15.828-65.832-79.182-109.633-150.672-109.633  c-76.896,0-136.118,53.996-144.013,128.256c-20.078,3.858-49.53,28.156-49.53,62.887v41.373h400.063v-43.028h26.478v-36.516  C426.617,199.877,405.41,181.912,379.567,182.386z" fill="#c44444" data-original="#44c4a1" class=""/>
<rect xmlns="http://www.w3.org/2000/svg" x="0.085" y="261.174" style="" width="425.984" height="44.109" fill="#a92c2c" data-original="#3ea69b" class=""/>
<path xmlns="http://www.w3.org/2000/svg" style="" d="M82.739,194.667c0-43.157,49.612-96.263,110.812-96.263s110.812,53.106,110.812,96.263H82.739z" fill="#d5d6db" data-original="#d5d6db" class=""/>
<path xmlns="http://www.w3.org/2000/svg" style="" d="M304.362,194.667c0-43.157-49.612-96.263-110.812-96.263v96.263H304.362z" fill="#ebf0f3" data-original="#ebf0f3" class=""/>
<circle xmlns="http://www.w3.org/2000/svg" style="" cx="105.357" cy="305.248" r="48.666" fill="#2f4859" data-original="#2f4859" class=""/>
<circle xmlns="http://www.w3.org/2000/svg" style="" cx="105.357" cy="305.248" r="31.62" fill="#d5d6db" data-original="#d5d6db" class=""/>
<circle xmlns="http://www.w3.org/2000/svg" style="" cx="105.357" cy="305.248" r="13.641" fill="#3a556a" data-original="#3a556a" class=""/>
<rect xmlns="http://www.w3.org/2000/svg" x="193.57" y="202.123" style="" width="45.235" height="15.445" fill="#64798a" data-original="#64798a" class=""/>
<rect xmlns="http://www.w3.org/2000/svg" x="193.57" y="202.093" style="" width="45.235" height="6.046" fill="#3a556a" data-original="#3a556a" class=""/>
<rect xmlns="http://www.w3.org/2000/svg" x="82.756" y="202.123" style="" width="45.235" height="15.445" fill="#64798a" data-original="#64798a" class=""/>
<rect xmlns="http://www.w3.org/2000/svg" x="82.756" y="202.093" style="" width="45.235" height="6.046" fill="#3a556a" data-original="#3a556a" class=""/>
<path xmlns="http://www.w3.org/2000/svg" style="" d="M402.309,186.718v38.469l24.308,0.538C426.617,225.726,428.917,200.249,402.309,186.718z" fill="#d5d6db" data-original="#d5d6db" class=""/>
<path xmlns="http://www.w3.org/2000/svg" style="" d="M0.076,261.162h19.088v-42.385C-2.269,239.348,0.076,261.162,0.076,261.162z" fill="#e56353" data-original="#e56353" class=""/>
<circle xmlns="http://www.w3.org/2000/svg" style="" cx="362.24" cy="305.248" r="48.666" fill="#2f4859" data-original="#2f4859" class=""/>
<circle xmlns="http://www.w3.org/2000/svg" style="" cx="362.24" cy="305.248" r="31.62" fill="#d5d6db" data-original="#d5d6db" class=""/>
<circle xmlns="http://www.w3.org/2000/svg" style="" cx="362.24" cy="305.248" r="13.641" fill="#3a556a" data-original="#3a556a" class=""/>
<g xmlns="http://www.w3.org/2000/svg">
</g>
<g xmlns="http://www.w3.org/2000/svg">
</g>
<g xmlns="http://www.w3.org/2000/svg">
</g>
<g xmlns="http://www.w3.org/2000/svg">
</g>
<g xmlns="http://www.w3.org/2000/svg">
</g>
<g xmlns="http://www.w3.org/2000/svg">
</g>
<g xmlns="http://www.w3.org/2000/svg">
</g>
<g xmlns="http://www.w3.org/2000/svg">
</g>
<g xmlns="http://www.w3.org/2000/svg">
</g>
<g xmlns="http://www.w3.org/2000/svg">
</g>
<g xmlns="http://www.w3.org/2000/svg">
</g>
<g xmlns="http://www.w3.org/2000/svg">
</g>
<g xmlns="http://www.w3.org/2000/svg">
</g>
<g xmlns="http://www.w3.org/2000/svg">
</g>
<g xmlns="http://www.w3.org/2000/svg">
</g>
</g></svg>
